<?xml version="1.0" encoding="utf-8"?>
<!-- Generator: Adobe Illustrator 25.0.1, SVG Export Plug-In . SVG Version: 6.00 Build 0)  -->
<svg version="1.1" id="Layer_1" xmlns="http://www.w3.org/2000/svg" xmlns:xlink="http://www.w3.org/1999/xlink" x="0px" y="0px"
	 viewBox="0 0 2200 1576" style="enable-background:new 0 0 2200 1576;" xml:space="preserve">
<style type="text/css">
	.st0{fill-rule:evenodd;clip-rule:evenodd;fill:#00EBCD;}
	.st1{fill:none;stroke:url(#SVGID_1_);stroke-width:10;}
	.st2{fill:url(#SVGID_2_);}
	.st3{fill:#FFFFFF;}
	.st4{fill:url(#SVGID_3_);}
	.st5{fill:url(#SVGID_4_);}
	.st6{fill:url(#SVGID_5_);}
	.st7{fill:url(#SVGID_6_);}
	.st8{fill:url(#SVGID_7_);}
	.st9{fill:#3EE6CD;}
	.st10{font-family:'Montserrat-SemiBold';}
	.st11{font-size:38.0639px;}
	.st12{fill:#3EE6E1;}
	.st13{fill:#3EE6D7;}
	.st14{fill:#3EE6D2;}
	.st15{fill:#E9EDF2;}
	.st16{fill:url(#SVGID_8_);}
	.st17{fill:url(#SVGID_9_);}
	.st18{fill:url(#SVGID_10_);}
	.st19{fill:url(#SVGID_11_);}
	.st20{fill:url(#SVGID_12_);}
	.st21{fill:url(#SVGID_13_);}
	.st22{fill:url(#SVGID_14_);}
	.st23{fill:url(#SVGID_15_);}
	.st24{fill:#2B3140;}
	.st25{font-size:52.3378px;}
	.st26{fill:none;stroke:url(#SVGID_16_);stroke-width:2;stroke-linecap:round;stroke-linejoin:round;}
	.st27{fill:none;stroke:url(#SVGID_17_);stroke-width:2;stroke-linecap:round;stroke-linejoin:round;}
	.st28{fill:none;stroke:url(#SVGID_18_);stroke-width:2;stroke-linecap:round;stroke-linejoin:round;}
	.st29{fill:none;stroke:url(#SVGID_19_);stroke-width:2;stroke-linecap:round;stroke-linejoin:round;}
	.st30{fill:none;stroke:url(#SVGID_20_);stroke-width:2;stroke-linecap:round;stroke-linejoin:round;}
	.st31{fill:none;stroke:url(#SVGID_21_);stroke-width:2;stroke-linecap:round;stroke-linejoin:round;}
	.st32{fill-rule:evenodd;clip-rule:evenodd;fill:#E9EDF2;}
	.st33{fill:#00F2B1;}
	.st34{fill:url(#SVGID_22_);}
	.st35{fill:url(#SVGID_23_);}
	.st36{fill:url(#SVGID_24_);}
	.st37{fill:url(#SVGID_25_);}
	.st38{fill:url(#SVGID_26_);}
	.st39{fill:url(#SVGID_27_);}
	.st40{fill:url(#SVGID_28_);}
	.st41{fill:url(#SVGID_29_);}
	.st42{fill:url(#SVGID_30_);}
	.st43{fill:none;stroke:url(#SVGID_31_);stroke-width:2.5;stroke-miterlimit:10;}
	.st44{fill:url(#SVGID_32_);}
	.st45{fill:url(#SVGID_33_);}
	.st46{fill:url(#SVGID_34_);}
	.st47{fill:url(#SVGID_35_);}
	.st48{font-family:'Montserrat-Regular';}
	.st49{font-size:23.7899px;}
	.st50{fill:none;stroke:#E9EDF2;stroke-width:2.5;stroke-miterlimit:10;}
	.st51{fill:#00F2B9;}
	.st52{fill:#00F2BE;}
	.st53{fill:none;stroke:url(#SVGID_36_);stroke-width:2.5;stroke-miterlimit:10;}
	.st54{fill:url(#SVGID_37_);}
	.st55{fill:url(#SVGID_38_);}
	.st56{fill:url(#SVGID_39_);}
	.st57{fill:url(#SVGID_40_);}
	.st58{fill:url(#SVGID_41_);}
	.st59{fill:url(#SVGID_42_);}
	.st60{fill:url(#SVGID_43_);}
	.st61{fill:url(#SVGID_44_);}
	.st62{fill:url(#SVGID_45_);}
	.st63{fill:url(#SVGID_46_);}
	.st64{fill:url(#SVGID_47_);}
	.st65{fill:url(#SVGID_48_);}
	.st66{fill:url(#SVGID_49_);}
	.st67{fill:url(#SVGID_50_);}
	.st68{fill:url(#SVGID_51_);}
	.st69{fill:url(#SVGID_52_);}
	.st70{fill:url(#SVGID_53_);}
	.st71{fill:none;stroke:url(#SVGID_54_);stroke-width:2;stroke-linecap:round;stroke-linejoin:round;}
	.st72{fill:none;stroke:url(#SVGID_55_);stroke-width:2;stroke-linecap:round;stroke-linejoin:round;}
	.st73{fill:url(#SVGID_56_);stroke:url(#SVGID_57_);stroke-width:0.5;stroke-miterlimit:10;}
	.st74{fill:url(#SVGID_58_);stroke:url(#SVGID_59_);stroke-miterlimit:10;}
	.st75{fill:none;stroke:url(#SVGID_60_);stroke-width:2;stroke-linecap:round;stroke-linejoin:round;}
	.st76{fill:none;stroke:url(#SVGID_61_);stroke-width:2;stroke-linecap:round;stroke-linejoin:round;}
	.st77{fill:url(#SVGID_62_);stroke:url(#SVGID_63_);stroke-width:0.5;stroke-miterlimit:10;}
	.st78{fill:url(#SVGID_64_);stroke:url(#SVGID_65_);stroke-miterlimit:10;}
</style>
<g id="iconfinder_x5F_save_x5F_326688_1_">
	<desc></desc>
	<g id="Page-1_1_">
		<g id="Core_1_" transform="translate(-255.000000, -381.000000)">
			<g id="save_1_" transform="translate(255.000000, 381.000000)">
				<path id="Shape_1_" class="st0" d="M622.9,872.3h-12.7c-1.2,0-2.1,1-2.1,2.1v14.8c0,1.2,1,2.1,2.1,2.1H625c1.2,0,2.1-1,2.1-2.1
					v-12.7L622.9,872.3L622.9,872.3z M617.6,889.2c-1.8,0-3.2-1.4-3.2-3.2c0-1.8,1.4-3.2,3.2-3.2c1.8,0,3.2,1.4,3.2,3.2
					C620.8,887.9,619.4,889.2,617.6,889.2L617.6,889.2z M620.8,878.7h-10.6v-4.2h10.6V878.7L620.8,878.7z"/>
			</g>
		</g>
	</g>
</g>
<g>
	<linearGradient id="SVGID_1_" gradientUnits="userSpaceOnUse" x1="113.6904" y1="788" x2="2091.3789" y2="788">
		<stop  offset="0" style="stop-color:#00F2B1"/>
		<stop  offset="0.51" style="stop-color:#1DECC8"/>
		<stop  offset="1" style="stop-color:#3EE6E1"/>
	</linearGradient>
	<path class="st1" d="M151.4,103h1902.3c18.1,0,32.7,14.9,32.7,33.2v1303.6c0,18.3-14.6,33.2-32.7,33.2H151.4
		c-18.1,0-32.7-14.9-32.7-33.2V136.2C118.7,117.9,133.3,103,151.4,103z"/>
</g>
<linearGradient id="SVGID_2_" gradientUnits="userSpaceOnUse" x1="264.4912" y1="1375.7267" x2="341.441" y2="1314.8435" gradientTransform="matrix(1 0 0 -1 0 1576)">
	<stop  offset="0" style="stop-color:#00F2B1"/>
	<stop  offset="0.51" style="stop-color:#1DECC8"/>
	<stop  offset="1" style="stop-color:#3EE6E1"/>
</linearGradient>
<circle class="st2" cx="304.7" cy="232.1" r="60.9"/>
<path class="st3" d="M302,232.2h-58.1c0,3,0.2,5.9,0.6,8.8H293L302,232.2z"/>
<path class="st3" d="M288.2,245.9h-42.8c0.7,3,1.6,6,2.8,8.8h31.1L288.2,245.9z"/>
<path class="st3" d="M274.5,259.7h-24.1c1.6,3.1,3.4,6,5.5,8.8h9.7L274.5,259.7z"/>
<path class="st3" d="M308.1,235.3L265,278.3c2.3,1.9,4.7,3.7,7.2,5.3l35.8-35.8L308.1,235.3z"/>
<path class="st3" d="M308.1,254.7l-31.5,31.5c2.8,1.5,5.7,2.7,8.8,3.7l22.7-22.6L308.1,254.7z"/>
<path class="st3" d="M308.1,274.1l-17.3,17.3c3.6,0.8,7.3,1.4,11,1.5l6.3-6.3L308.1,274.1z"/>
<path class="st3" d="M314,235.1v57.2c3-0.5,5.9-1.1,8.8-2V244L314,235.1z"/>
<path class="st3" d="M327.7,248.8v39.7c3.1-1.3,6-2.8,8.8-4.5v-26.3L327.7,248.8z"/>
<path class="st3" d="M341,262.6v18.1c3.2-2.4,6.2-5.2,8.8-8.2v-0.9L341,262.6z"/>
<path class="st3" d="M320.4,232.2l34.4,34.5c1.7-2.5,3.3-5.1,4.6-7.9l-26.5-26.6L320.4,232.2z"/>
<path class="st3" d="M339.8,232.2l21.8,21.8c1.2-3.1,2.2-6.4,2.8-9.7l-3.2-3.2C355.5,235.4,347.8,232.2,339.8,232.2z"/>
<path class="st3" d="M336.7,210.8c-0.9-1-3-2.6-7.1-4.2c-0.3-2.2-1.5-4.1-3.3-5.3l0,0c-0.3-0.2-0.6-0.4-0.9-0.6
	c-1.2-0.8-2.4-1.4-3.7-1.9c-4.9-1.9-10.1-2.7-15.3-2.1c-0.6,0.1-1.4,0.3-1.6,0.9l2.1,0.6c-2.4,0.3-5.1,0.8-6.5,2.6
	c-0.3,0.4,4.1,1,4.4,1.1c1.4,0.9,2.2,2.5,2,4.2c-0.4,4.2-5.3,6.3-8.3,8.8c-3.4,2.8-6.4,5.9-9,9.4c-5.7,7.7-9.7,16.6-13.3,25.7
	c0,0-2.9,7.6,5.1,2.7c1.9-1.1,3.7-2.3,5.4-3.6c0.1-0.1,0.2,0,0.2,0.1c-1.5,3-3,6-4.5,9.1c-0.9,1.8-2.7,6.6,0,8.2
	c3.5,2,4.6-4.9,5.3-6.7c2-4.8,6.1-5.8,11.1-5.9c5.4-0.1,11.4-1.1,15.5-4.2c9.3-6.9,16.7-20,14.3-32.7c-0.3-1.6-1.7-3.5-0.6-4.9
	c0.9-1.1,2.7-0.5,4-0.2c1.7,0.4,3.3,0.4,5,0.8C338.6,213,337.3,211.4,336.7,210.8z"/>
<g>
	<g>
		<linearGradient id="SVGID_3_" gradientUnits="userSpaceOnUse" x1="426.4292" y1="234.4443" x2="705.6704" y2="234.4443">
			<stop  offset="0" style="stop-color:#00F2B1"/>
			<stop  offset="0.51" style="stop-color:#1DECC8"/>
			<stop  offset="1" style="stop-color:#3EE6E1"/>
		</linearGradient>
		<path class="st4" d="M475.1,240.1v28.3h-11.6v-26.8c0-8.8-4.3-13-11.8-13c-8.2,0-13.8,5-13.8,14.9v25h-11.6v-68.7H438v25
			c3.8-4.1,9.6-6.3,16.5-6.3C466.3,218.5,475.1,225.2,475.1,240.1z"/>
		<linearGradient id="SVGID_4_" gradientUnits="userSpaceOnUse" x1="426.4292" y1="234.4443" x2="705.6704" y2="234.4443">
			<stop  offset="0" style="stop-color:#00F2B1"/>
			<stop  offset="0.51" style="stop-color:#1DECC8"/>
			<stop  offset="1" style="stop-color:#3EE6E1"/>
		</linearGradient>
		<path class="st5" d="M531.2,239.5v29h-10.9v-6c-2.8,4.3-8.1,6.7-15.5,6.7c-11.3,0-18.4-6.2-18.4-14.8c0-8.2,5.6-14.7,20.5-14.7
			h12.8v-0.7c0-6.8-4.1-10.7-12.3-10.7c-5.6,0-11.3,1.9-15,4.9l-4.5-8.4c5.3-4.1,13-6.1,20.9-6.1
			C522.9,218.5,531.2,225.2,531.2,239.5z M519.6,253v-5.7h-11.9c-7.9,0-10,3-10,6.6c0,4.2,3.5,6.8,9.4,6.8
			C512.8,260.7,517.7,258.1,519.6,253z"/>
		<linearGradient id="SVGID_5_" gradientUnits="userSpaceOnUse" x1="426.4292" y1="234.4443" x2="705.6704" y2="234.4443">
			<stop  offset="0" style="stop-color:#00F2B1"/>
			<stop  offset="0.51" style="stop-color:#1DECC8"/>
			<stop  offset="1" style="stop-color:#3EE6E1"/>
		</linearGradient>
		<path class="st6" d="M592.2,219L571,268.4h-11.9L537.9,219h12l15.4,36.6l15.8-36.6H592.2z"/>
		<linearGradient id="SVGID_6_" gradientUnits="userSpaceOnUse" x1="426.4292" y1="234.4443" x2="705.6704" y2="234.4443">
			<stop  offset="0" style="stop-color:#00F2B1"/>
			<stop  offset="0.51" style="stop-color:#1DECC8"/>
			<stop  offset="1" style="stop-color:#3EE6E1"/>
		</linearGradient>
		<path class="st7" d="M645.7,247.4h-38.8c1.4,7.2,7.4,11.8,16,11.8c5.6,0,9.9-1.8,13.4-5.4l6.2,7.1c-4.4,5.3-11.4,8.1-19.9,8.1
			c-16.6,0-27.3-10.6-27.3-25.4c0-14.7,10.8-25.3,25.5-25.3c14.4,0,25,10.1,25,25.5C645.9,244.9,645.8,246.3,645.7,247.4z
			 M606.9,239.8h28c-0.9-7.1-6.4-12-14-12C613.4,227.7,608,232.5,606.9,239.8z"/>
		<linearGradient id="SVGID_7_" gradientUnits="userSpaceOnUse" x1="426.4292" y1="234.4443" x2="705.6704" y2="234.4443">
			<stop  offset="0" style="stop-color:#00F2B1"/>
			<stop  offset="0.51" style="stop-color:#1DECC8"/>
			<stop  offset="1" style="stop-color:#3EE6E1"/>
		</linearGradient>
		<path class="st8" d="M705.7,240.1v28.3h-11.6v-26.8c0-8.8-4.3-13-11.8-13c-8.2,0-13.8,5-13.8,14.9v25H657V219h11v6.4
			c3.8-4.5,9.8-6.9,17-6.9C696.9,218.5,705.7,225.2,705.7,240.1z"/>
	</g>
</g>
<g>
	<text transform="matrix(1 0 0 1 1376.0868 250.0657)"><tspan x="0" y="0" class="st9 st10 st11">Projects  </tspan><tspan x="181.9" y="0" class="st12 st10 st11">    </tspan><tspan x="224" y="0" class="st13 st10 st11">Users</tspan><tspan x="332.9" y="0" class="st14 st10 st11">      </tspan><tspan x="395.9" y="0" class="st12 st10 st11">Logs</tspan></text>
</g>
<g id="iconfinder_x5F_Picture1_x5F_3289576_1_">
	<g>
		<circle class="st15" cx="1942.4" cy="222.5" r="8.5"/>
		<path class="st15" d="M1959.4,250.1v-8.5c0-1.3-0.6-2.5-1.7-3.4c-2.3-1.9-5.3-3.2-8.3-4c-2.1-0.6-4.5-1.1-7-1.1
			c-2.3,0-4.7,0.4-7,1.1c-3,0.8-5.9,2.3-8.3,4c-1.1,0.8-1.7,2.1-1.7,3.4v8.5H1959.4z"/>
	</g>
</g>
<g>
	<g>
		<linearGradient id="SVGID_8_" gradientUnits="userSpaceOnUse" x1="244.9312" y1="435.3989" x2="457.6821" y2="435.3989">
			<stop  offset="0" style="stop-color:#00F2B1"/>
			<stop  offset="0.51" style="stop-color:#1DECC8"/>
			<stop  offset="1" style="stop-color:#3EE6E1"/>
		</linearGradient>
		<path class="st16" d="M274.6,436.4c0,8.7-6,14.3-14.2,14.3c-3.8,0-7.1-1.3-9.3-4v3.6h-6.2v-38.8h6.5v14.3c2.3-2.5,5.4-3.7,8.9-3.7
			C268.6,422.1,274.6,427.7,274.6,436.4z M268,436.4c0-5.3-3.6-8.7-8.3-8.7s-8.3,3.4-8.3,8.7s3.6,8.7,8.3,8.7S268,441.7,268,436.4z"
			/>
		<linearGradient id="SVGID_9_" gradientUnits="userSpaceOnUse" x1="244.9312" y1="435.3989" x2="457.6821" y2="435.3989">
			<stop  offset="0" style="stop-color:#00F2B1"/>
			<stop  offset="0.51" style="stop-color:#1DECC8"/>
			<stop  offset="1" style="stop-color:#3EE6E1"/>
		</linearGradient>
		<path class="st17" d="M280.8,411.5h6.5v38.8h-6.5V411.5z"/>
		<linearGradient id="SVGID_10_" gradientUnits="userSpaceOnUse" x1="244.9312" y1="435.3989" x2="457.6821" y2="435.3989">
			<stop  offset="0" style="stop-color:#00F2B1"/>
			<stop  offset="0.51" style="stop-color:#1DECC8"/>
			<stop  offset="1" style="stop-color:#3EE6E1"/>
		</linearGradient>
		<path class="st18" d="M323,422.4v27.9h-6.2v-3.6c-2.1,2.6-5.4,3.9-9,3.9c-7.2,0-12-3.9-12-12.4v-16h6.5v15.1
			c0,5.1,2.4,7.5,6.5,7.5c4.6,0,7.6-2.8,7.6-8.4v-14.1H323z"/>
		<linearGradient id="SVGID_11_" gradientUnits="userSpaceOnUse" x1="244.9312" y1="435.3989" x2="457.6821" y2="435.3989">
			<stop  offset="0" style="stop-color:#00F2B1"/>
			<stop  offset="0.51" style="stop-color:#1DECC8"/>
			<stop  offset="1" style="stop-color:#3EE6E1"/>
		</linearGradient>
		<path class="st19" d="M357.8,438.5h-21.9c0.8,4.1,4.2,6.7,9.1,6.7c3.1,0,5.6-1,7.6-3l3.5,4c-2.5,3-6.4,4.6-11.3,4.6
			c-9.4,0-15.4-6-15.4-14.3s6.1-14.3,14.4-14.3c8.2,0,14.1,5.7,14.1,14.4C357.9,437,357.8,437.8,357.8,438.5z M335.8,434.1h15.9
			c-0.5-4-3.6-6.8-7.9-6.8C339.5,427.3,336.4,430,335.8,434.1z"/>
		<linearGradient id="SVGID_12_" gradientUnits="userSpaceOnUse" x1="244.9312" y1="435.3989" x2="457.6821" y2="435.3989">
			<stop  offset="0" style="stop-color:#00F2B1"/>
			<stop  offset="0.51" style="stop-color:#1DECC8"/>
			<stop  offset="1" style="stop-color:#3EE6E1"/>
		</linearGradient>
		<path class="st20" d="M362.7,433.1h14.4v5.4h-14.4V433.1z"/>
		<linearGradient id="SVGID_13_" gradientUnits="userSpaceOnUse" x1="244.9312" y1="435.3989" x2="457.6821" y2="435.3989">
			<stop  offset="0" style="stop-color:#00F2B1"/>
			<stop  offset="0.51" style="stop-color:#1DECC8"/>
			<stop  offset="1" style="stop-color:#3EE6E1"/>
		</linearGradient>
		<path class="st21" d="M375.1,459.2l1.9-4.9c1,0.7,2.4,1.1,3.8,1.1c2.4,0,3.8-1.5,3.8-4.4v-28.6h6.5v28.5c0,6.1-3.5,10-9.7,10
			C379,460.9,376.7,460.4,375.1,459.2z M383.7,413.9c0-2.2,1.8-3.9,4.2-3.9s4.2,1.6,4.2,3.8c0,2.3-1.7,4.1-4.2,4.1
			C385.5,417.8,383.7,416.1,383.7,413.9z"/>
		<linearGradient id="SVGID_14_" gradientUnits="userSpaceOnUse" x1="244.9312" y1="435.3989" x2="457.6821" y2="435.3989">
			<stop  offset="0" style="stop-color:#00F2B1"/>
			<stop  offset="0.51" style="stop-color:#1DECC8"/>
			<stop  offset="1" style="stop-color:#3EE6E1"/>
		</linearGradient>
		<path class="st22" d="M423.1,434v16.4H417v-3.4c-1.6,2.4-4.6,3.8-8.8,3.8c-6.4,0-10.4-3.5-10.4-8.4c0-4.7,3.1-8.3,11.6-8.3h7.2
			v-0.4c0-3.8-2.3-6.1-7-6.1c-3.1,0-6.4,1-8.5,2.8l-2.6-4.8c3-2.3,7.3-3.5,11.8-3.5C418.5,422.1,423.1,425.9,423.1,434z
			 M416.6,441.6v-3.2h-6.8c-4.4,0-5.7,1.7-5.7,3.7c0,2.4,2,3.9,5.3,3.9C412.7,445.9,415.5,444.5,416.6,441.6z"/>
		<linearGradient id="SVGID_15_" gradientUnits="userSpaceOnUse" x1="244.9312" y1="435.3989" x2="457.6821" y2="435.3989">
			<stop  offset="0" style="stop-color:#00F2B1"/>
			<stop  offset="0.51" style="stop-color:#1DECC8"/>
			<stop  offset="1" style="stop-color:#3EE6E1"/>
		</linearGradient>
		<path class="st23" d="M457.7,422.4l-13.1,30.2c-2.6,6.3-6.1,8.3-10.8,8.3c-2.8,0-5.7-0.9-7.5-2.6l2.6-4.8c1.3,1.2,3,1.9,4.8,1.9
			c2.3,0,3.7-1.1,4.9-3.9l0.5-1.1L427,422.4h6.8l8.8,20.7l8.8-20.7H457.7z"/>
	</g>
</g>
<g id="iconfinder_x5F_left_x5F_arrow_x5F_back_x5F_previous_x5F_navigation_x5F_3994376_1_">
	<path class="st15" d="M495.1,445.3c-1.2,1-1.4,2.8-0.4,4c1,1.2,2.8,1.4,4,0.4l17.1-14.3c0.1-0.1,0.3-0.2,0.4-0.4c1-1.2,0.9-3-0.4-4
		l-17.1-14.3c-1.2-1-3-0.8-4,0.4c-1,1.2-0.9,3,0.4,4l14.5,12.1L495.1,445.3z"/>
</g>
<g>
	<text transform="matrix(1 0 0 1 548.5316 450.3415)" class="st24 st10 st25">dev</text>
</g>
<g>
	<g>
		<g>
			<path class="st24" d="M306.3,594.9h-3.9l8.7-24.2h4.2l8.7,24.2h-3.9l-6.8-19.8h-0.2L306.3,594.9z M306.9,585.4h12.6v3.1h-12.6
				V585.4z"/>
			<path class="st24" d="M327.6,594.9v-24.2h8.6c1.9,0,3.4,0.3,4.7,1c1.2,0.7,2.2,1.6,2.8,2.8c0.6,1.2,0.9,2.5,0.9,4
				c0,1.5-0.3,2.8-0.9,4c-0.6,1.2-1.5,2.1-2.8,2.8c-1.2,0.7-2.8,1-4.7,1h-5.9v-3.1h5.6c1.2,0,2.2-0.2,2.9-0.6s1.3-1,1.6-1.7
				c0.3-0.7,0.5-1.5,0.5-2.4s-0.2-1.7-0.5-2.4s-0.9-1.3-1.6-1.7c-0.7-0.4-1.7-0.6-2.9-0.6h-4.6v21.1H327.6z"/>
			<path class="st24" d="M352.5,570.7v24.2h-3.7v-24.2H352.5z"/>
			<path class="st24" d="M368.2,583.1v3.1h-10.7v-3.1H368.2z"/>
			<path class="st24" d="M372,573.8v-3.1h18.7v3.1h-7.6v21.1h-3.6v-21.1H372z"/>
			<path class="st24" d="M416,582.8c0,2.6-0.5,4.8-1.4,6.7c-0.9,1.9-2.2,3.3-3.9,4.3s-3.5,1.5-5.6,1.5c-2.1,0-4-0.5-5.6-1.5
				s-2.9-2.4-3.9-4.3c-0.9-1.9-1.4-4.1-1.4-6.7c0-2.6,0.5-4.8,1.4-6.7s2.2-3.3,3.9-4.3c1.6-1,3.5-1.5,5.6-1.5c2.1,0,4,0.5,5.6,1.5
				c1.6,1,2.9,2.4,3.9,4.3S416,580.2,416,582.8z M412.3,582.8c0-2-0.3-3.6-1-5c-0.6-1.4-1.5-2.4-2.6-3.1c-1.1-0.7-2.3-1-3.7-1
				c-1.4,0-2.6,0.3-3.7,1c-1.1,0.7-2,1.7-2.6,3.1c-0.6,1.4-1,3-1,5s0.3,3.6,1,5c0.6,1.4,1.5,2.4,2.6,3.1c1.1,0.7,2.3,1,3.7,1
				c1.4,0,2.6-0.3,3.7-1s2-1.7,2.6-3.1C412,586.4,412.3,584.8,412.3,582.8z"/>
			<path class="st24" d="M420.5,594.9v-24.2h3.7v11.6h0.3l10.2-11.6h4.6l-9.8,10.9l9.8,13.3h-4.4l-7.8-10.8l-2.9,3.3v7.5H420.5z"/>
			<path class="st24" d="M442.6,594.9v-24.2h15.2v3.1h-11.5v7.4H457v3.1h-10.7v7.4H458v3.1H442.6z"/>
			<path class="st24" d="M482.3,570.7v24.2h-3.4l-12.3-17.8h-0.2v17.8h-3.7v-24.2h3.4l12.3,17.8h0.2v-17.8H482.3z"/>
		</g>
	</g>
</g>
<g>
	<g>
		<g>
			<path class="st24" d="M307.1,753.3h-3.9l8.7-24.2h4.2l8.7,24.2H321l-6.8-19.8H314L307.1,753.3z M307.8,743.9h12.6v3.1h-12.6
				V743.9z"/>
			<path class="st24" d="M333.1,753.3l-6.7-24.2h3.8l4.7,18.8h0.2l4.9-18.8h3.8l4.9,18.8h0.2l4.7-18.8h3.9l-6.7,24.2h-3.7l-5.1-18.1
				h-0.2l-5.1,18.1H333.1z"/>
			<path class="st24" d="M374.2,735.5c-0.1-1.1-0.6-2-1.6-2.6c-0.9-0.6-2.1-0.9-3.5-0.9c-1,0-1.9,0.2-2.6,0.5
				c-0.7,0.3-1.3,0.7-1.7,1.3c-0.4,0.5-0.6,1.2-0.6,1.8c0,0.6,0.1,1.1,0.4,1.5c0.3,0.4,0.6,0.8,1.1,1c0.4,0.3,0.9,0.5,1.4,0.7
				c0.5,0.2,1,0.3,1.5,0.5l2.4,0.6c0.8,0.2,1.6,0.4,2.4,0.8c0.8,0.3,1.6,0.7,2.3,1.3c0.7,0.5,1.3,1.2,1.7,2c0.4,0.8,0.6,1.7,0.6,2.8
				c0,1.4-0.4,2.6-1.1,3.7s-1.7,1.9-3.1,2.5c-1.3,0.6-3,0.9-4.8,0.9c-1.8,0-3.4-0.3-4.7-0.9c-1.3-0.6-2.4-1.4-3.1-2.5
				s-1.2-2.3-1.2-3.8h3.7c0.1,0.9,0.4,1.6,0.9,2.2c0.5,0.6,1.1,1,1.9,1.3c0.8,0.3,1.6,0.4,2.6,0.4c1,0,2-0.2,2.8-0.5
				c0.8-0.3,1.4-0.8,1.9-1.4c0.5-0.6,0.7-1.3,0.7-2.1c0-0.7-0.2-1.3-0.6-1.8c-0.4-0.5-1-0.8-1.6-1.1c-0.7-0.3-1.5-0.6-2.3-0.8
				l-2.9-0.8c-1.9-0.5-3.5-1.3-4.6-2.3c-1.1-1-1.7-2.4-1.7-4.1c0-1.4,0.4-2.6,1.1-3.7c0.8-1,1.8-1.9,3.1-2.4
				c1.3-0.6,2.8-0.9,4.4-0.9c1.6,0,3.1,0.3,4.3,0.9c1.3,0.6,2.2,1.4,3,2.4c0.7,1,1.1,2.2,1.1,3.5H374.2z"/>
			<path class="st24" d="M392.8,741.6v3.1h-10.7v-3.1H392.8z"/>
			<path class="st24" d="M417.9,737h-3.7c-0.1-0.8-0.4-1.5-0.8-2.1c-0.4-0.6-0.9-1.1-1.4-1.5c-0.6-0.4-1.2-0.7-1.9-0.9
				s-1.4-0.3-2.2-0.3c-1.4,0-2.6,0.4-3.7,1.1c-1.1,0.7-2,1.7-2.6,3.1c-0.6,1.4-1,3-1,5c0,2,0.3,3.6,1,5c0.6,1.4,1.5,2.4,2.6,3.1
				c1.1,0.7,2.3,1,3.7,1c0.8,0,1.5-0.1,2.2-0.3s1.3-0.5,1.9-0.9c0.6-0.4,1-0.9,1.4-1.5c0.4-0.6,0.7-1.3,0.8-2.1l3.7,0
				c-0.2,1.2-0.6,2.3-1.1,3.3c-0.6,1-1.3,1.9-2.2,2.6c-0.9,0.7-1.9,1.3-3,1.7c-1.1,0.4-2.4,0.6-3.7,0.6c-2.1,0-4-0.5-5.6-1.5
				c-1.6-1-2.9-2.4-3.9-4.3c-0.9-1.9-1.4-4.1-1.4-6.7c0-2.6,0.5-4.8,1.4-6.7s2.2-3.3,3.9-4.3c1.6-1,3.5-1.5,5.6-1.5
				c1.3,0,2.5,0.2,3.6,0.6c1.1,0.4,2.1,0.9,3,1.6c0.9,0.7,1.6,1.6,2.2,2.6S417.7,735.7,417.9,737z"/>
			<path class="st24" d="M422.3,729.1h4.4l7.7,18.8h0.3l7.7-18.8h4.4v24.2h-3.5v-17.5h-0.2l-7.1,17.5h-2.9l-7.1-17.5h-0.2v17.5h-3.5
				V729.1z"/>
			<path class="st24" d="M452.2,753.3v-24.2h3.7v11.6h0.3l10.2-11.6h4.6l-9.8,10.9l9.8,13.3h-4.4l-7.8-10.8l-2.9,3.3v7.5H452.2z"/>
			<path class="st24" d="M484.8,741.6v3.1H474v-3.1H484.8z"/>
			<path class="st24" d="M493.4,729.1v24.2h-3.7v-24.2H493.4z"/>
			<path class="st24" d="M506.6,753.3h-7.8v-24.2h8.1c2.4,0,4.4,0.5,6.1,1.4s3,2.3,3.9,4.2s1.4,4,1.4,6.5c0,2.5-0.5,4.7-1.4,6.5
				c-0.9,1.8-2.2,3.2-4,4.2C511.1,752.9,509,753.3,506.6,753.3z M502.4,750.2h4c1.8,0,3.4-0.3,4.6-1s2.1-1.7,2.7-3
				c0.6-1.3,0.9-3,0.9-4.9c0-1.9-0.3-3.5-0.9-4.8c-0.6-1.3-1.5-2.3-2.7-3c-1.2-0.7-2.7-1-4.4-1h-4.2V750.2z"/>
		</g>
	</g>
</g>
<g id="iconfinder_x5F_edit-3_x5F_2561260_6_">
	<linearGradient id="SVGID_16_" gradientUnits="userSpaceOnUse" x1="245.5402" y1="579.8141" x2="266.5999" y2="579.8141">
		<stop  offset="0" style="stop-color:#00F2B1"/>
		<stop  offset="0.51" style="stop-color:#1DECC8"/>
		<stop  offset="1" style="stop-color:#3EE6E1"/>
	</linearGradient>
	<polygon class="st26" points="260.5,570.3 265.6,575.4 251.6,589.3 246.5,589.3 246.5,584.3 	"/>
	<linearGradient id="SVGID_17_" gradientUnits="userSpaceOnUse" x1="245.5402" y1="595.6972" x2="270.4118" y2="595.6972">
		<stop  offset="0" style="stop-color:#00F2B1"/>
		<stop  offset="0.51" style="stop-color:#1DECC8"/>
		<stop  offset="1" style="stop-color:#3EE6E1"/>
	</linearGradient>
	<line class="st27" x1="246.5" y1="595.7" x2="269.4" y2="595.7"/>
</g>
<g id="iconfinder_x5F_edit-3_x5F_2561260_5_">
	<linearGradient id="SVGID_18_" gradientUnits="userSpaceOnUse" x1="245.5402" y1="737.832" x2="266.5999" y2="737.832">
		<stop  offset="0" style="stop-color:#00F2B1"/>
		<stop  offset="0.51" style="stop-color:#1DECC8"/>
		<stop  offset="1" style="stop-color:#3EE6E1"/>
	</linearGradient>
	<polygon class="st28" points="260.5,728.3 265.6,733.4 251.6,747.4 246.5,747.4 246.5,742.3 	"/>
	<linearGradient id="SVGID_19_" gradientUnits="userSpaceOnUse" x1="245.5402" y1="753.715" x2="270.4118" y2="753.715">
		<stop  offset="0" style="stop-color:#00F2B1"/>
		<stop  offset="0.51" style="stop-color:#1DECC8"/>
		<stop  offset="1" style="stop-color:#3EE6E1"/>
	</linearGradient>
	<line class="st29" x1="246.5" y1="753.7" x2="269.4" y2="753.7"/>
</g>
<g>
	<g>
		<g>
			<path class="st24" d="M311.4,676.9h-7.8v-24.2h8.1c2.4,0,4.4,0.5,6.1,1.4s3,2.3,3.9,4.2s1.4,4,1.4,6.5c0,2.5-0.5,4.7-1.4,6.5
				c-0.9,1.8-2.2,3.2-4,4.2C316,676.5,313.9,676.9,311.4,676.9z M307.2,673.7h4c1.8,0,3.4-0.3,4.6-1s2.1-1.7,2.7-3
				c0.6-1.3,0.9-3,0.9-4.9c0-1.9-0.3-3.5-0.9-4.8c-0.6-1.3-1.5-2.3-2.7-3c-1.2-0.7-2.7-1-4.4-1h-4.2V673.7z"/>
			<path class="st24" d="M327.6,676.9v-24.2h8.9c1.7,0,3.1,0.3,4.3,0.8c1.1,0.6,2,1.3,2.5,2.3c0.6,1,0.8,2,0.8,3.2
				c0,1-0.2,1.9-0.6,2.5s-0.9,1.2-1.5,1.7s-1.3,0.7-2,0.9v0.2c0.8,0,1.6,0.3,2.4,0.8c0.8,0.5,1.4,1.2,1.9,2c0.5,0.9,0.8,1.9,0.8,3.2
				c0,1.2-0.3,2.3-0.9,3.3c-0.6,1-1.5,1.8-2.7,2.3c-1.2,0.6-2.7,0.9-4.6,0.9H327.6z M331.2,663.2h4.9c0.8,0,1.6-0.2,2.2-0.5
				c0.7-0.3,1.2-0.8,1.6-1.3c0.4-0.6,0.6-1.2,0.6-2c0-1-0.4-1.8-1.1-2.5s-1.8-1-3.2-1h-5V663.2z M331.2,673.8h5.3c1.8,0,3-0.3,3.8-1
				s1.1-1.5,1.1-2.5c0-0.8-0.2-1.5-0.6-2.1c-0.4-0.6-0.9-1.1-1.6-1.5c-0.7-0.4-1.6-0.6-2.5-0.6h-5.4V673.8z"/>
			<path class="st24" d="M359.8,665.2v3.1h-10.7v-3.1H359.8z"/>
			<path class="st24" d="M364.8,676.9v-24.2h8.6c1.9,0,3.4,0.3,4.7,1c1.2,0.7,2.2,1.6,2.8,2.8c0.6,1.2,0.9,2.5,0.9,4
				c0,1.5-0.3,2.8-0.9,4c-0.6,1.2-1.5,2.1-2.8,2.8c-1.2,0.7-2.8,1-4.7,1h-5.9v-3.1h5.6c1.2,0,2.2-0.2,2.9-0.6s1.3-1,1.6-1.7
				c0.3-0.7,0.5-1.5,0.5-2.4s-0.2-1.7-0.5-2.4s-0.9-1.3-1.6-1.7c-0.7-0.4-1.7-0.6-2.9-0.6h-4.6v21.1H364.8z"/>
			<path class="st24" d="M388.1,676.9h-3.9l8.7-24.2h4.2l8.7,24.2H402l-6.8-19.8H395L388.1,676.9z M388.8,667.5h12.6v3.1h-12.6
				V667.5z"/>
			<path class="st24" d="M422.6,659.1c-0.1-1.1-0.6-2-1.6-2.6c-0.9-0.6-2.1-0.9-3.5-0.9c-1,0-1.9,0.2-2.6,0.5
				c-0.7,0.3-1.3,0.7-1.7,1.3c-0.4,0.5-0.6,1.2-0.6,1.8c0,0.6,0.1,1.1,0.4,1.5c0.3,0.4,0.6,0.8,1.1,1c0.4,0.3,0.9,0.5,1.4,0.7
				c0.5,0.2,1,0.3,1.5,0.5l2.4,0.6c0.8,0.2,1.6,0.4,2.4,0.8c0.8,0.3,1.6,0.7,2.3,1.3c0.7,0.5,1.3,1.2,1.7,2c0.4,0.8,0.6,1.7,0.6,2.8
				c0,1.4-0.4,2.6-1.1,3.7s-1.7,1.9-3.1,2.5c-1.3,0.6-3,0.9-4.8,0.9c-1.8,0-3.4-0.3-4.7-0.9c-1.3-0.6-2.4-1.4-3.1-2.5
				s-1.2-2.3-1.2-3.8h3.7c0.1,0.9,0.4,1.6,0.9,2.2c0.5,0.6,1.1,1,1.9,1.3c0.8,0.3,1.6,0.4,2.6,0.4c1,0,2-0.2,2.8-0.5
				c0.8-0.3,1.4-0.8,1.9-1.4c0.5-0.6,0.7-1.3,0.7-2.1c0-0.7-0.2-1.3-0.6-1.8c-0.4-0.5-1-0.8-1.6-1.1c-0.7-0.3-1.5-0.6-2.3-0.8
				l-2.9-0.8c-1.9-0.5-3.5-1.3-4.6-2.3c-1.1-1-1.7-2.4-1.7-4.1c0-1.4,0.4-2.6,1.1-3.7c0.8-1,1.8-1.9,3.1-2.4
				c1.3-0.6,2.8-0.9,4.4-0.9c1.6,0,3.1,0.3,4.3,0.9c1.3,0.6,2.2,1.4,3,2.4c0.7,1,1.1,2.2,1.1,3.5H422.6z"/>
			<path class="st24" d="M444,659.1c-0.1-1.1-0.6-2-1.6-2.6c-0.9-0.6-2.1-0.9-3.5-0.9c-1,0-1.9,0.2-2.6,0.5
				c-0.7,0.3-1.3,0.7-1.7,1.3c-0.4,0.5-0.6,1.2-0.6,1.8c0,0.6,0.1,1.1,0.4,1.5c0.3,0.4,0.6,0.8,1.1,1c0.4,0.3,0.9,0.5,1.4,0.7
				c0.5,0.2,1,0.3,1.5,0.5l2.4,0.6c0.8,0.2,1.6,0.4,2.4,0.8c0.8,0.3,1.6,0.7,2.3,1.3c0.7,0.5,1.3,1.2,1.7,2c0.4,0.8,0.6,1.7,0.6,2.8
				c0,1.4-0.4,2.6-1.1,3.7s-1.7,1.9-3.1,2.5c-1.3,0.6-3,0.9-4.8,0.9c-1.8,0-3.4-0.3-4.7-0.9c-1.3-0.6-2.4-1.4-3.1-2.5
				s-1.2-2.3-1.2-3.8h3.7c0.1,0.9,0.4,1.6,0.9,2.2c0.5,0.6,1.1,1,1.9,1.3c0.8,0.3,1.6,0.4,2.6,0.4c1,0,2-0.2,2.8-0.5
				c0.8-0.3,1.4-0.8,1.9-1.4c0.5-0.6,0.7-1.3,0.7-2.1c0-0.7-0.2-1.3-0.6-1.8c-0.4-0.5-1-0.8-1.6-1.1c-0.7-0.3-1.5-0.6-2.3-0.8
				l-2.9-0.8c-1.9-0.5-3.5-1.3-4.6-2.3c-1.1-1-1.7-2.4-1.7-4.1c0-1.4,0.4-2.6,1.1-3.7c0.8-1,1.8-1.9,3.1-2.4
				c1.3-0.6,2.8-0.9,4.4-0.9c1.6,0,3.1,0.3,4.3,0.9c1.3,0.6,2.2,1.4,3,2.4c0.7,1,1.1,2.2,1.1,3.5H444z"/>
			<path class="st24" d="M457,676.9l-6.7-24.2h3.8l4.7,18.8h0.2l4.9-18.8h3.8l4.9,18.8h0.2l4.7-18.8h3.9l-6.7,24.2h-3.7l-5.1-18.1
				h-0.2l-5.1,18.1H457z"/>
			<path class="st24" d="M505.9,664.8c0,2.6-0.5,4.8-1.4,6.7c-0.9,1.9-2.2,3.3-3.9,4.3s-3.5,1.5-5.6,1.5c-2.1,0-4-0.5-5.6-1.5
				s-2.9-2.4-3.9-4.3c-0.9-1.9-1.4-4.1-1.4-6.7c0-2.6,0.5-4.8,1.4-6.7s2.2-3.3,3.9-4.3c1.6-1,3.5-1.5,5.6-1.5c2.1,0,4,0.5,5.6,1.5
				c1.6,1,2.9,2.4,3.9,4.3S505.9,662.2,505.9,664.8z M502.3,664.8c0-2-0.3-3.6-1-5c-0.6-1.4-1.5-2.4-2.6-3.1c-1.1-0.7-2.3-1-3.7-1
				c-1.4,0-2.6,0.3-3.7,1c-1.1,0.7-2,1.7-2.6,3.1c-0.6,1.4-1,3-1,5s0.3,3.6,1,5c0.6,1.4,1.5,2.4,2.6,3.1c1.1,0.7,2.3,1,3.7,1
				c1.4,0,2.6-0.3,3.7-1s2-1.7,2.6-3.1C501.9,668.5,502.3,666.8,502.3,664.8z"/>
			<path class="st24" d="M510.4,676.9v-24.2h8.6c1.9,0,3.4,0.3,4.7,1c1.2,0.6,2.2,1.5,2.8,2.7c0.6,1.1,0.9,2.5,0.9,3.9
				c0,1.5-0.3,2.8-0.9,3.9c-0.6,1.1-1.5,2-2.8,2.6c-1.2,0.6-2.8,0.9-4.7,0.9h-6.5v-3.1h6.2c1.2,0,2.1-0.2,2.9-0.5s1.3-0.8,1.6-1.5
				s0.5-1.4,0.5-2.3c0-0.9-0.2-1.7-0.5-2.4c-0.4-0.7-0.9-1.2-1.6-1.5c-0.7-0.4-1.7-0.5-2.9-0.5h-4.6v21.1H510.4z M522.4,666l6,10.9
				h-4.2l-5.9-10.9H522.4z"/>
			<path class="st24" d="M539.7,676.9h-7.8v-24.2h8.1c2.4,0,4.4,0.5,6.1,1.4s3,2.3,3.9,4.2s1.4,4,1.4,6.5c0,2.5-0.5,4.7-1.4,6.5
				c-0.9,1.8-2.2,3.2-4,4.2C544.3,676.5,542.2,676.9,539.7,676.9z M535.5,673.7h4c1.8,0,3.4-0.3,4.6-1s2.1-1.7,2.7-3
				c0.6-1.3,0.9-3,0.9-4.9c0-1.9-0.3-3.5-0.9-4.8c-0.6-1.3-1.5-2.3-2.7-3c-1.2-0.7-2.7-1-4.4-1h-4.2V673.7z"/>
		</g>
	</g>
</g>
<g id="iconfinder_x5F_edit-3_x5F_2561260_2_">
	<linearGradient id="SVGID_20_" gradientUnits="userSpaceOnUse" x1="245.5402" y1="661.85" x2="266.5999" y2="661.85">
		<stop  offset="0" style="stop-color:#00F2B1"/>
		<stop  offset="0.51" style="stop-color:#1DECC8"/>
		<stop  offset="1" style="stop-color:#3EE6E1"/>
	</linearGradient>
	<polygon class="st30" points="260.5,652.3 265.6,657.4 251.6,671.4 246.5,671.4 246.5,666.3 	"/>
	<linearGradient id="SVGID_21_" gradientUnits="userSpaceOnUse" x1="245.5402" y1="677.733" x2="270.4118" y2="677.733">
		<stop  offset="0" style="stop-color:#00F2B1"/>
		<stop  offset="0.51" style="stop-color:#1DECC8"/>
		<stop  offset="1" style="stop-color:#3EE6E1"/>
	</linearGradient>
	<line class="st31" x1="246.5" y1="677.7" x2="269.4" y2="677.7"/>
</g>
<path class="st32" d="M1952.2,677.3h-1364c-4.2,0-7.5-3.4-7.5-7.5v-9.5c0-4.2,3.4-7.5,7.5-7.5h1364c4.2,0,7.5,3.4,7.5,7.5v9.5
	C1959.8,674,1956.4,677.3,1952.2,677.3z"/>
<path class="st32" d="M1952.2,594.9h-1364c-4.2,0-7.5-3.4-7.5-7.5v-9.5c0-4.2,3.4-7.5,7.5-7.5h1364c4.2,0,7.5,3.4,7.5,7.5v9.5
	C1959.8,591.5,1956.4,594.9,1952.2,594.9z"/>
<path class="st32" d="M1952.2,753.4h-1364c-4.2,0-7.5-3.4-7.5-7.5v-9.5c0-4.2,3.4-7.5,7.5-7.5h1364c4.2,0,7.5,3.4,7.5,7.5v9.5
	C1959.8,750,1956.4,753.4,1952.2,753.4z"/>
<g id="iconfinder_x5F_add_x5F_134224_1_">
	<path class="st33" d="M308.7,880.7h-6.8v-6.8c0-0.8-0.6-1.4-1.4-1.4c-0.8,0-1.4,0.6-1.4,1.4v6.8h-6.8c-0.8,0-1.4,0.6-1.4,1.4
		s0.6,1.4,1.4,1.4h6.8v6.8c0,0.8,0.6,1.4,1.4,1.4c0.8,0,1.4-0.6,1.4-1.4v-6.8h6.8c0.8,0,1.4-0.6,1.4-1.4S309.4,880.7,308.7,880.7z"
		/>
</g>
<g>
	<g>
		<linearGradient id="SVGID_22_" gradientUnits="userSpaceOnUse" x1="318.9814" y1="881.438" x2="449.7285" y2="881.438">
			<stop  offset="0" style="stop-color:#00F2B1"/>
			<stop  offset="0.5405" style="stop-color:#1DECC8"/>
		</linearGradient>
		<path class="st34" d="M332.1,885.7h-9.3l-2,4.4H319l7.6-16.7h1.7l7.6,16.7h-1.9L332.1,885.7z M331.4,884.3l-4-8.9l-4,8.9H331.4z"
			/>
		<linearGradient id="SVGID_23_" gradientUnits="userSpaceOnUse" x1="318.9814" y1="881.438" x2="449.7285" y2="881.438">
			<stop  offset="0" style="stop-color:#00F2B1"/>
			<stop  offset="0.5405" style="stop-color:#1DECC8"/>
		</linearGradient>
		<path class="st35" d="M349.8,872.5v17.7h-1.6v-2.5c-1,1.7-2.8,2.6-4.8,2.6c-3.6,0-6.2-2.6-6.2-6.4c0-3.8,2.7-6.4,6.2-6.4
			c2,0,3.7,0.9,4.8,2.5v-7.5H349.8z M348.1,883.9c0-2.9-2-4.9-4.6-4.9c-2.7,0-4.7,2-4.7,4.9c0,2.9,2,4.9,4.7,4.9
			C346.1,888.8,348.1,886.9,348.1,883.9z"/>
		<linearGradient id="SVGID_24_" gradientUnits="userSpaceOnUse" x1="318.9814" y1="881.438" x2="449.7285" y2="881.438">
			<stop  offset="0" style="stop-color:#00F2B1"/>
			<stop  offset="0.5405" style="stop-color:#1DECC8"/>
		</linearGradient>
		<path class="st36" d="M365.9,872.5v17.7h-1.6v-2.5c-1,1.7-2.8,2.6-4.8,2.6c-3.6,0-6.2-2.6-6.2-6.4c0-3.8,2.7-6.4,6.2-6.4
			c2,0,3.7,0.9,4.8,2.5v-7.5H365.9z M364.2,883.9c0-2.9-2-4.9-4.6-4.9c-2.7,0-4.7,2-4.7,4.9c0,2.9,2,4.9,4.7,4.9
			C362.2,888.8,364.2,886.9,364.2,883.9z"/>
		<linearGradient id="SVGID_25_" gradientUnits="userSpaceOnUse" x1="318.9814" y1="881.438" x2="449.7285" y2="881.438">
			<stop  offset="0" style="stop-color:#00F2B1"/>
			<stop  offset="0.5405" style="stop-color:#1DECC8"/>
		</linearGradient>
		<path class="st37" d="M375.6,888.2l0.7-1.4c1.2,1.2,3.3,2,5.5,2c3.1,0,4.5-1.3,4.5-3c0-4.6-10.3-1.8-10.3-7.9
			c0-2.5,1.9-4.6,6.1-4.6c1.9,0,3.8,0.5,5.2,1.5l-0.6,1.4c-1.4-0.9-3.1-1.4-4.6-1.4c-3,0-4.4,1.4-4.4,3c0,4.6,10.3,1.8,10.3,7.9
			c0,2.5-2,4.5-6.2,4.5C379.3,890.3,376.8,889.5,375.6,888.2z"/>
		<linearGradient id="SVGID_26_" gradientUnits="userSpaceOnUse" x1="318.9814" y1="881.438" x2="449.7285" y2="881.438">
			<stop  offset="0" style="stop-color:#00F2B1"/>
			<stop  offset="0.5405" style="stop-color:#1DECC8"/>
		</linearGradient>
		<path class="st38" d="M402.4,884.5h-10.5c0.2,2.6,2.2,4.4,4.9,4.4c1.5,0,2.9-0.5,3.8-1.6l1,1.1c-1.1,1.3-2.9,2-4.8,2
			c-3.9,0-6.6-2.7-6.6-6.4c0-3.7,2.6-6.4,6.1-6.4c3.5,0,6.1,2.6,6.1,6.4C402.4,884.1,402.4,884.3,402.4,884.5z M391.9,883.2h8.9
			c-0.2-2.5-2-4.2-4.4-4.2C393.9,879,392.1,880.7,391.9,883.2z"/>
		<linearGradient id="SVGID_27_" gradientUnits="userSpaceOnUse" x1="318.9814" y1="881.438" x2="449.7285" y2="881.438">
			<stop  offset="0" style="stop-color:#00F2B1"/>
			<stop  offset="0.5405" style="stop-color:#1DECC8"/>
		</linearGradient>
		<path class="st39" d="M404.6,883.9c0-3.7,2.7-6.4,6.4-6.4c2.1,0,3.9,0.8,4.9,2.5l-1.3,0.9c-0.9-1.3-2.2-1.9-3.6-1.9
			c-2.7,0-4.7,2-4.7,4.9c0,3,2,4.9,4.7,4.9c1.5,0,2.8-0.6,3.6-1.8l1.3,0.9c-1,1.6-2.8,2.5-4.9,2.5
			C407.3,890.3,404.6,887.7,404.6,883.9z"/>
		<linearGradient id="SVGID_28_" gradientUnits="userSpaceOnUse" x1="318.9814" y1="881.438" x2="449.7285" y2="881.438">
			<stop  offset="0" style="stop-color:#00F2B1"/>
			<stop  offset="0.5405" style="stop-color:#1DECC8"/>
		</linearGradient>
		<path class="st40" d="M425.5,877.6v1.6c-0.1,0-0.3,0-0.4,0c-2.6,0-4.2,1.7-4.2,4.6v6.4h-1.7v-12.5h1.6v2.5
			C421.6,878.5,423.2,877.6,425.5,877.6z"/>
		<linearGradient id="SVGID_29_" gradientUnits="userSpaceOnUse" x1="318.9814" y1="881.438" x2="449.7285" y2="881.438">
			<stop  offset="0" style="stop-color:#00F2B1"/>
			<stop  offset="0.5405" style="stop-color:#1DECC8"/>
		</linearGradient>
		<path class="st41" d="M439.7,884.5h-10.5c0.2,2.6,2.2,4.4,4.9,4.4c1.5,0,2.9-0.5,3.8-1.6l1,1.1c-1.1,1.3-2.9,2-4.8,2
			c-3.9,0-6.6-2.7-6.6-6.4c0-3.7,2.6-6.4,6.1-6.4c3.5,0,6.1,2.6,6.1,6.4C439.7,884.1,439.7,884.3,439.7,884.5z M429.2,883.2h8.9
			c-0.2-2.5-2-4.2-4.4-4.2C431.2,879,429.4,880.7,429.2,883.2z"/>
		<linearGradient id="SVGID_30_" gradientUnits="userSpaceOnUse" x1="318.9814" y1="881.438" x2="449.7285" y2="881.438">
			<stop  offset="0" style="stop-color:#00F2B1"/>
			<stop  offset="0.5405" style="stop-color:#1DECC8"/>
		</linearGradient>
		<path class="st42" d="M449.7,889.4c-0.7,0.6-1.7,0.9-2.6,0.9c-2.4,0-3.7-1.3-3.7-3.6v-7.6h-2.2v-1.4h2.2v-2.7h1.7v2.7h3.8v1.4
			h-3.8v7.5c0,1.5,0.8,2.3,2.2,2.3c0.7,0,1.4-0.2,1.9-0.6L449.7,889.4z"/>
	</g>
</g>
<linearGradient id="SVGID_31_" gradientUnits="userSpaceOnUse" x1="244.3792" y1="880.4435" x2="773.6621" y2="880.4435">
	<stop  offset="0" style="stop-color:#00F2B1"/>
	<stop  offset="0.51" style="stop-color:#1DECC8"/>
	<stop  offset="1" style="stop-color:#3EE6E1"/>
</linearGradient>
<path class="st43" d="M470.9,915.2H267c-11.8,0-21.4-9.6-21.4-21.4V867c0-11.8,9.6-21.4,21.4-21.4h203.9c11.8,0,21.4,9.6,21.4,21.4
	v26.8C492.2,905.7,482.7,915.2,470.9,915.2z M772.4,893.8V867c0-11.8-9.6-21.4-21.4-21.4H547.2c-11.8,0-21.4,9.6-21.4,21.4v26.8
	c0,11.8,9.6,21.4,21.4,21.4H751C762.8,915.2,772.4,905.7,772.4,893.8z"/>
<g>
	<g>
		<linearGradient id="SVGID_32_" gradientUnits="userSpaceOnUse" x1="638.8911" y1="881.8662" x2="692.6074" y2="881.8662">
			<stop  offset="0" style="stop-color:#1DECC8"/>
			<stop  offset="0.5578" style="stop-color:#3EE6E1"/>
		</linearGradient>
		<path class="st44" d="M638.9,888.2l0.7-1.4c1.2,1.2,3.3,2,5.5,2c3.1,0,4.5-1.3,4.5-3c0-4.6-10.3-1.8-10.3-7.9
			c0-2.5,1.9-4.6,6.1-4.6c1.9,0,3.8,0.5,5.2,1.5l-0.6,1.4c-1.4-0.9-3.1-1.4-4.6-1.4c-3,0-4.4,1.4-4.4,3c0,4.6,10.3,1.8,10.3,7.9
			c0,2.5-2,4.5-6.2,4.5C642.6,890.3,640.1,889.5,638.9,888.2z"/>
		<linearGradient id="SVGID_33_" gradientUnits="userSpaceOnUse" x1="638.8911" y1="881.8662" x2="692.6074" y2="881.8662">
			<stop  offset="0" style="stop-color:#1DECC8"/>
			<stop  offset="0.5578" style="stop-color:#3EE6E1"/>
		</linearGradient>
		<path class="st45" d="M664.2,882.4v7.8h-1.6v-2c-0.8,1.3-2.2,2.1-4.3,2.1c-2.8,0-4.6-1.5-4.6-3.6c0-1.9,1.2-3.5,4.8-3.5h4v-0.8
			c0-2.1-1.2-3.3-3.5-3.3c-1.6,0-3.1,0.6-4.2,1.5l-0.8-1.3c1.3-1.1,3.1-1.7,5.1-1.7C662.4,877.6,664.2,879.2,664.2,882.4z
			 M662.5,886.4v-2h-3.9c-2.4,0-3.2,1-3.2,2.2c0,1.5,1.2,2.4,3.2,2.4C660.4,889,661.8,888.1,662.5,886.4z"/>
		<linearGradient id="SVGID_34_" gradientUnits="userSpaceOnUse" x1="638.8911" y1="881.8662" x2="692.6074" y2="881.8662">
			<stop  offset="0" style="stop-color:#1DECC8"/>
			<stop  offset="0.5578" style="stop-color:#3EE6E1"/>
		</linearGradient>
		<path class="st46" d="M679.3,877.7l-5.6,12.5H672l-5.5-12.5h1.8l4.7,10.7l4.7-10.7H679.3z"/>
		<linearGradient id="SVGID_35_" gradientUnits="userSpaceOnUse" x1="638.8911" y1="881.8662" x2="692.6074" y2="881.8662">
			<stop  offset="0" style="stop-color:#1DECC8"/>
			<stop  offset="0.5578" style="stop-color:#3EE6E1"/>
		</linearGradient>
		<path class="st47" d="M692.6,884.5h-10.5c0.2,2.6,2.2,4.4,4.9,4.4c1.5,0,2.9-0.5,3.8-1.6l1,1.1c-1.1,1.3-2.9,2-4.8,2
			c-3.9,0-6.6-2.7-6.6-6.4c0-3.7,2.6-6.4,6.1-6.4c3.5,0,6.1,2.6,6.1,6.4C692.6,884.1,692.6,884.3,692.6,884.5z M682.1,883.2h8.9
			c-0.2-2.5-2-4.2-4.4-4.2C684.1,879,682.3,880.7,682.1,883.2z"/>
	</g>
</g>
<g id="iconfinder_x5F_Picture1_x5F_3289576_2_">
	<g>
		<circle class="st15" cx="262.2" cy="1106.6" r="8.5"/>
		<path class="st15" d="M279.2,1134.2v-8.5c0-1.3-0.6-2.5-1.7-3.4c-2.3-1.9-5.3-3.2-8.3-4c-2.1-0.6-4.5-1.1-7-1.1
			c-2.3,0-4.7,0.4-7,1.1c-3,0.8-5.9,2.3-8.3,4c-1.1,0.8-1.7,2.1-1.7,3.4v8.5H279.2z"/>
	</g>
</g>
<g>
	<g>
		<g>
			<path class="st24" d="M313.5,1130.2h-3.9l8.7-24.2h4.2l8.7,24.2h-3.9l-6.8-19.8h-0.2L313.5,1130.2z M314.1,1120.7h12.6v3.1h-12.6
				V1120.7z"/>
			<path class="st24" d="M338,1106v24.2h-3.5V1106H338z"/>
			<path class="st24" d="M344.5,1109.3c-0.6,0-1.1-0.2-1.6-0.6c-0.4-0.4-0.7-0.9-0.7-1.5c0-0.6,0.2-1.1,0.7-1.5
				c0.4-0.4,1-0.6,1.6-0.6c0.6,0,1.1,0.2,1.6,0.6s0.7,0.9,0.7,1.5c0,0.6-0.2,1.1-0.7,1.5S345.2,1109.3,344.5,1109.3z M342.8,1130.2
				v-18.2h3.5v18.2H342.8z"/>
			<path class="st24" d="M358.7,1130.6c-1.8,0-3.3-0.4-4.5-1.2c-1.3-0.8-2.2-1.9-2.9-3.3s-1-3-1-4.8c0-1.8,0.3-3.5,1-4.9
				c0.7-1.4,1.7-2.5,2.9-3.3c1.3-0.8,2.7-1.2,4.5-1.2c1.4,0,2.6,0.3,3.7,0.8c1.1,0.5,2,1.2,2.6,2.1c0.7,0.9,1.1,2,1.2,3.2h-3.4
				c-0.2-0.9-0.6-1.6-1.3-2.2c-0.7-0.6-1.6-0.9-2.7-0.9c-1,0-1.8,0.3-2.6,0.8c-0.7,0.5-1.3,1.2-1.7,2.2s-0.6,2.1-0.6,3.4
				c0,1.3,0.2,2.5,0.6,3.4c0.4,1,1,1.7,1.7,2.2s1.6,0.8,2.6,0.8c0.7,0,1.3-0.1,1.8-0.4c0.5-0.2,1-0.6,1.4-1.1c0.4-0.5,0.6-1,0.8-1.7
				h3.4c-0.1,1.2-0.5,2.2-1.1,3.1c-0.6,0.9-1.5,1.6-2.6,2.2S360.1,1130.6,358.7,1130.6z"/>
			<path class="st24" d="M377.8,1130.6c-1.8,0-3.3-0.4-4.6-1.2c-1.3-0.8-2.3-1.9-3-3.3s-1-3-1-4.9c0-1.9,0.3-3.5,1-4.9
				c0.7-1.4,1.7-2.5,2.9-3.3c1.3-0.8,2.7-1.2,4.4-1.2c1,0,2,0.2,3,0.5s1.8,0.9,2.6,1.6s1.4,1.7,1.8,2.8c0.4,1.2,0.7,2.6,0.7,4.2v1.3
				h-14.4v-2.6h11c0-0.9-0.2-1.8-0.6-2.5c-0.4-0.7-0.9-1.3-1.6-1.7c-0.7-0.4-1.5-0.6-2.4-0.6c-1,0-1.9,0.2-2.6,0.7
				c-0.7,0.5-1.3,1.1-1.7,1.9c-0.4,0.8-0.6,1.6-0.6,2.5v2.1c0,1.2,0.2,2.2,0.6,3.1c0.4,0.9,1,1.5,1.8,1.9c0.8,0.4,1.7,0.7,2.7,0.7
				c0.7,0,1.3-0.1,1.8-0.3s1-0.5,1.4-0.9c0.4-0.4,0.7-0.9,0.9-1.4l3.3,0.6c-0.3,1-0.7,1.8-1.4,2.6s-1.6,1.3-2.6,1.7
				C380.3,1130.4,379.1,1130.6,377.8,1130.6z"/>
		</g>
	</g>
</g>
<g id="iconfinder_x5F_Picture1_x5F_3289576_3_">
	<g>
		<circle class="st15" cx="262.2" cy="1183.6" r="8.5"/>
		<path class="st15" d="M279.2,1211.1v-8.5c0-1.3-0.6-2.5-1.7-3.4c-2.3-1.9-5.3-3.2-8.3-4c-2.1-0.6-4.5-1.1-7-1.1
			c-2.3,0-4.7,0.4-7,1.1c-3,0.8-5.9,2.3-8.3,4c-1.1,0.8-1.7,2.1-1.7,3.4v8.5H279.2z"/>
	</g>
</g>
<g>
	<g>
		<g>
			<path class="st24" d="M311.4,1207.2v-24.2h8.9c1.7,0,3.1,0.3,4.3,0.8c1.1,0.6,2,1.3,2.5,2.3c0.6,1,0.8,2,0.8,3.2
				c0,1-0.2,1.9-0.6,2.5c-0.4,0.7-0.9,1.2-1.5,1.7c-0.6,0.4-1.3,0.7-2,0.9v0.2c0.8,0,1.6,0.3,2.4,0.8c0.8,0.5,1.4,1.2,1.9,2
				c0.5,0.9,0.8,1.9,0.8,3.2c0,1.2-0.3,2.3-0.9,3.3s-1.5,1.8-2.7,2.3c-1.2,0.6-2.7,0.9-4.6,0.9H311.4z M315.1,1193.4h4.9
				c0.8,0,1.6-0.2,2.2-0.5c0.7-0.3,1.2-0.8,1.6-1.3c0.4-0.6,0.6-1.2,0.6-2c0-1-0.4-1.8-1.1-2.5c-0.7-0.7-1.8-1-3.2-1h-5V1193.4z
				 M315.1,1204h5.3c1.8,0,3-0.3,3.8-1s1.1-1.5,1.1-2.5c0-0.8-0.2-1.5-0.6-2.1s-0.9-1.1-1.6-1.5c-0.7-0.4-1.6-0.6-2.5-0.6h-5.4V1204
				z"/>
			<path class="st24" d="M340.6,1207.5c-1.7,0-3.2-0.4-4.5-1.2c-1.3-0.8-2.3-1.9-3-3.3s-1.1-3-1.1-4.9c0-1.9,0.4-3.5,1.1-4.9
				s1.7-2.5,3-3.3s2.8-1.2,4.5-1.2s3.2,0.4,4.5,1.2c1.3,0.8,2.3,1.9,3,3.3s1.1,3.1,1.1,4.9c0,1.9-0.4,3.5-1.1,4.9s-1.7,2.5-3,3.3
				C343.8,1207.1,342.3,1207.5,340.6,1207.5z M340.6,1204.6c1.1,0,2-0.3,2.7-0.9c0.7-0.6,1.3-1.4,1.6-2.3c0.4-1,0.5-2,0.5-3.2
				c0-1.2-0.2-2.2-0.5-3.2c-0.4-1-0.9-1.8-1.6-2.3c-0.7-0.6-1.6-0.9-2.7-0.9c-1.1,0-2,0.3-2.8,0.9c-0.7,0.6-1.3,1.4-1.6,2.3
				c-0.4,1-0.5,2-0.5,3.2c0,1.2,0.2,2.2,0.5,3.2c0.4,1,0.9,1.7,1.6,2.3C338.6,1204.3,339.5,1204.6,340.6,1204.6z"/>
			<path class="st24" d="M353.3,1207.2v-24.2h3.5v9h0.2c0.2-0.4,0.5-0.8,0.9-1.3c0.4-0.5,0.9-0.9,1.6-1.3c0.7-0.4,1.6-0.6,2.7-0.6
				c1.5,0,2.8,0.4,3.9,1.1c1.2,0.7,2.1,1.8,2.7,3.2c0.7,1.4,1,3.1,1,5c0,2-0.3,3.6-1,5c-0.7,1.4-1.6,2.5-2.7,3.2
				c-1.1,0.8-2.4,1.1-3.9,1.1c-1.1,0-2-0.2-2.7-0.6c-0.7-0.4-1.2-0.8-1.6-1.3c-0.4-0.5-0.7-0.9-0.9-1.3h-0.3v2.8H353.3z
				 M356.8,1198.1c0,1.3,0.2,2.4,0.6,3.4c0.4,1,0.9,1.7,1.6,2.3c0.7,0.5,1.6,0.8,2.6,0.8c1.1,0,1.9-0.3,2.6-0.8
				c0.7-0.6,1.2-1.3,1.6-2.3c0.4-1,0.5-2.1,0.5-3.3c0-1.2-0.2-2.3-0.5-3.2c-0.4-1-0.9-1.7-1.6-2.3c-0.7-0.6-1.6-0.8-2.7-0.8
				c-1,0-1.9,0.3-2.6,0.8c-0.7,0.5-1.2,1.3-1.6,2.2C356.9,1195.7,356.8,1196.8,356.8,1198.1z"/>
		</g>
	</g>
</g>
<g id="iconfinder_x5F_padlock-unlock-unlocked-open-available_x5F_3643754_1_">
	<g id="Layer_14_1_">
		<path class="st13" d="M1108.5,1346.8h-11.8c-1.1,0-2-0.9-2-2v-7.2c0-1.1,0.9-2,2-2h11.8c1.1,0,2,0.9,2,2v7.2
			C1110.5,1345.9,1109.6,1346.8,1108.5,1346.8z M1096.7,1336.9c-0.4,0-0.7,0.3-0.7,0.7v7.2c0,0.4,0.3,0.7,0.7,0.7h11.8
			c0.4,0,0.7-0.3,0.7-0.7v-7.2c0-0.4-0.3-0.7-0.7-0.7H1096.7z"/>
		<path class="st13" d="M1097.4,1336.9c-0.4,0-0.7-0.3-0.7-0.7v-3.9c0-2.9,2.3-5.2,5.2-5.2h1.3c2.9,0,5.2,2.3,5.2,5.2
			c0,0.4-0.3,0.7-0.7,0.7s-0.7-0.3-0.7-0.7c0-2.2-1.8-3.9-3.9-3.9h-1.3c-2.2,0-3.9,1.8-3.9,3.9v3.9
			C1098,1336.6,1097.7,1336.9,1097.4,1336.9z"/>
		<path class="st13" d="M1102.6,1341.5c-0.7,0-1.3-0.6-1.3-1.3c0-0.7,0.6-1.3,1.3-1.3c0.7,0,1.3,0.6,1.3,1.3
			C1103.9,1340.9,1103.3,1341.5,1102.6,1341.5z M1102.6,1340.2L1102.6,1340.2z M1102.6,1340.2L1102.6,1340.2z M1102.6,1340.2
			L1102.6,1340.2z M1102.6,1340.2L1102.6,1340.2z M1102.6,1340.2L1102.6,1340.2z M1102.6,1340.2L1102.6,1340.2z M1102.6,1340.2
			L1102.6,1340.2z M1102.6,1340.2L1102.6,1340.2z"/>
		<rect x="1101.9" y="1340.8" class="st13" width="1.3" height="2.6"/>
	</g>
</g>
<g>
	<text transform="matrix(1 0 0 1 1122.7255 1345.9797)" class="st12 st48 st49">Grant Access</text>
</g>
<line class="st50" x1="244.5" y1="1008.1" x2="1959.1" y2="1008.3"/>
<g>
	<text transform="matrix(1 0 0 1 360.8739 1345.7434)" class="st51 st48 st49">Select User</text>
</g>
<g id="iconfinder_x5F_icon-arrow-down-b_x5F_211614_1_">
	<path class="st52" d="M572.3,1334.3l0.1,0.1l6.8,7.9c0.2,0.3,0.6,0.4,1,0.4s0.7-0.2,1-0.4l6.8-7.8l0.1-0.1c0.1-0.1,0.1-0.3,0.1-0.4
		c0-0.4-0.4-0.8-0.8-0.8l0,0H573l0,0c-0.5,0-0.8,0.4-0.8,0.8C572.1,1334.1,572.2,1334.2,572.3,1334.3z"/>
</g>
<linearGradient id="SVGID_36_" gradientUnits="userSpaceOnUse" x1="243.8475" y1="1337.4186" x2="1311.0624" y2="1337.4186">
	<stop  offset="0" style="stop-color:#00F2B1"/>
	<stop  offset="0.51" style="stop-color:#1DECC8"/>
	<stop  offset="1" style="stop-color:#3EE6E1"/>
</linearGradient>
<path class="st53" d="M1288.4,1371.7h-203.9c-11.8,0-21.4-9.6-21.4-21.4v-26.8c0-11.8,9.6-21.4,21.4-21.4h203.9
	c11.8,0,21.4,9.6,21.4,21.4v26.8C1309.8,1362.1,1300.2,1371.7,1288.4,1371.7z M600.6,1372.7H266.5c-11.8,0-21.4-9.6-21.4-21.4v-26.8
	c0-11.8,9.6-21.4,21.4-21.4h334.1c11.8,0,21.4,9.6,21.4,21.4v26.8C622,1363.1,612.4,1372.7,600.6,1372.7z M1009.5,1372.7H675.4
	c-11.8,0-21.4-9.6-21.4-21.4v-26.8c0-11.8,9.6-21.4,21.4-21.4h334.1c11.8,0,21.4,9.6,21.4,21.4v26.8
	C1030.9,1363.1,1021.3,1372.7,1009.5,1372.7z"/>
<g>
	<g>
		<linearGradient id="SVGID_37_" gradientUnits="userSpaceOnUse" x1="728.5562" y1="1336.9888" x2="950.6782" y2="1336.9888">
			<stop  offset="0" style="stop-color:#00F2B1"/>
			<stop  offset="0.5405" style="stop-color:#1DECC8"/>
		</linearGradient>
		<path class="st54" d="M728.6,1343.7l0.7-1.4c1.2,1.2,3.3,2,5.5,2c3.1,0,4.5-1.3,4.5-3c0-4.6-10.3-1.8-10.3-7.9
			c0-2.5,1.9-4.6,6.1-4.6c1.9,0,3.8,0.5,5.2,1.5l-0.6,1.4c-1.4-0.9-3.1-1.4-4.6-1.4c-3,0-4.4,1.4-4.4,3c0,4.6,10.3,1.8,10.3,7.9
			c0,2.5-2,4.5-6.2,4.5C732.2,1345.9,729.8,1345,728.6,1343.7z"/>
		<linearGradient id="SVGID_38_" gradientUnits="userSpaceOnUse" x1="728.5562" y1="1336.9888" x2="950.6782" y2="1336.9888">
			<stop  offset="0" style="stop-color:#00F2B1"/>
			<stop  offset="0.5405" style="stop-color:#1DECC8"/>
		</linearGradient>
		<path class="st55" d="M755.3,1340h-10.5c0.2,2.6,2.2,4.4,4.9,4.4c1.5,0,2.9-0.5,3.8-1.6l1,1.1c-1.1,1.3-2.9,2-4.8,2
			c-3.9,0-6.6-2.7-6.6-6.4c0-3.7,2.6-6.4,6.1-6.4c3.5,0,6.1,2.6,6.1,6.4C755.3,1339.6,755.3,1339.8,755.3,1340z M744.9,1338.7h8.9
			c-0.2-2.5-2-4.2-4.4-4.2C746.8,1334.6,745.1,1336.3,744.9,1338.7z"/>
		<linearGradient id="SVGID_39_" gradientUnits="userSpaceOnUse" x1="728.5562" y1="1336.9888" x2="950.6782" y2="1336.9888">
			<stop  offset="0" style="stop-color:#00F2B1"/>
			<stop  offset="0.5405" style="stop-color:#1DECC8"/>
		</linearGradient>
		<path class="st56" d="M758.8,1328.1h1.7v17.7h-1.7V1328.1z"/>
		<linearGradient id="SVGID_40_" gradientUnits="userSpaceOnUse" x1="728.5562" y1="1336.9888" x2="950.6782" y2="1336.9888">
			<stop  offset="0" style="stop-color:#00F2B1"/>
			<stop  offset="0.5405" style="stop-color:#1DECC8"/>
		</linearGradient>
		<path class="st57" d="M776.1,1340h-10.5c0.2,2.6,2.2,4.4,4.9,4.4c1.5,0,2.9-0.5,3.8-1.6l1,1.1c-1.1,1.3-2.9,2-4.8,2
			c-3.9,0-6.6-2.7-6.6-6.4c0-3.7,2.6-6.4,6.1-6.4c3.5,0,6.1,2.6,6.1,6.4C776.1,1339.6,776.1,1339.8,776.1,1340z M765.6,1338.7h8.9
			c-0.2-2.5-2-4.2-4.4-4.2C767.6,1334.6,765.8,1336.3,765.6,1338.7z"/>
		<linearGradient id="SVGID_41_" gradientUnits="userSpaceOnUse" x1="728.5562" y1="1336.9888" x2="950.6782" y2="1336.9888">
			<stop  offset="0" style="stop-color:#00F2B1"/>
			<stop  offset="0.5405" style="stop-color:#1DECC8"/>
		</linearGradient>
		<path class="st58" d="M778.3,1339.5c0-3.7,2.7-6.4,6.4-6.4c2.1,0,3.9,0.8,4.9,2.5l-1.3,0.9c-0.9-1.3-2.2-1.9-3.6-1.9
			c-2.7,0-4.7,2-4.7,4.9c0,3,2,4.9,4.7,4.9c1.5,0,2.8-0.6,3.6-1.8l1.3,0.9c-1,1.6-2.8,2.5-4.9,2.5
			C781,1345.9,778.3,1343.2,778.3,1339.5z"/>
		<linearGradient id="SVGID_42_" gradientUnits="userSpaceOnUse" x1="728.5562" y1="1336.9888" x2="950.6782" y2="1336.9888">
			<stop  offset="0" style="stop-color:#00F2B1"/>
			<stop  offset="0.5405" style="stop-color:#1DECC8"/>
		</linearGradient>
		<path class="st59" d="M799.5,1345c-0.7,0.6-1.7,0.9-2.6,0.9c-2.4,0-3.7-1.3-3.7-3.6v-7.6H791v-1.4h2.2v-2.7h1.7v2.7h3.8v1.4h-3.8
			v7.5c0,1.5,0.8,2.3,2.2,2.3c0.7,0,1.4-0.2,1.9-0.6L799.5,1345z"/>
		<linearGradient id="SVGID_43_" gradientUnits="userSpaceOnUse" x1="728.5562" y1="1336.9888" x2="950.6782" y2="1336.9888">
			<stop  offset="0" style="stop-color:#00F2B1"/>
			<stop  offset="0.5405" style="stop-color:#1DECC8"/>
		</linearGradient>
		<path class="st60" d="M822.2,1334.8c0,3.5-2.6,5.7-6.8,5.7H811v5.3h-1.8v-16.7h6.2C819.7,1329.1,822.2,1331.2,822.2,1334.8z
			 M820.5,1334.8c0-2.7-1.8-4.2-5.1-4.2H811v8.3h4.4C818.7,1338.9,820.5,1337.4,820.5,1334.8z"/>
		<linearGradient id="SVGID_44_" gradientUnits="userSpaceOnUse" x1="728.5562" y1="1336.9888" x2="950.6782" y2="1336.9888">
			<stop  offset="0" style="stop-color:#00F2B1"/>
			<stop  offset="0.5405" style="stop-color:#1DECC8"/>
		</linearGradient>
		<path class="st61" d="M836.8,1340h-10.5c0.2,2.6,2.2,4.4,4.9,4.4c1.5,0,2.9-0.5,3.8-1.6l1,1.1c-1.1,1.3-2.9,2-4.8,2
			c-3.9,0-6.6-2.7-6.6-6.4c0-3.7,2.6-6.4,6.1-6.4c3.5,0,6.1,2.6,6.1,6.4C836.8,1339.6,836.8,1339.8,836.8,1340z M826.4,1338.7h8.9
			c-0.2-2.5-2-4.2-4.4-4.2C828.4,1334.6,826.6,1336.3,826.4,1338.7z"/>
		<linearGradient id="SVGID_45_" gradientUnits="userSpaceOnUse" x1="728.5562" y1="1336.9888" x2="950.6782" y2="1336.9888">
			<stop  offset="0" style="stop-color:#00F2B1"/>
			<stop  offset="0.5405" style="stop-color:#1DECC8"/>
		</linearGradient>
		<path class="st62" d="M846.6,1333.1v1.6c-0.1,0-0.3,0-0.4,0c-2.6,0-4.2,1.7-4.2,4.6v6.4h-1.7v-12.5h1.6v2.5
			C842.7,1334,844.3,1333.1,846.6,1333.1z"/>
		<linearGradient id="SVGID_46_" gradientUnits="userSpaceOnUse" x1="728.5562" y1="1336.9888" x2="950.6782" y2="1336.9888">
			<stop  offset="0" style="stop-color:#00F2B1"/>
			<stop  offset="0.5405" style="stop-color:#1DECC8"/>
		</linearGradient>
		<path class="st63" d="M870.5,1338.5v7.3h-1.7v-7.1c0-2.6-1.3-4-3.6-4c-2.6,0-4.2,1.7-4.2,4.5v6.6h-1.7v-7.1c0-2.6-1.3-4-3.6-4
			c-2.5,0-4.2,1.7-4.2,4.5v6.6h-1.7v-12.5h1.6v2.3c0.9-1.5,2.5-2.4,4.6-2.4c2.1,0,3.7,0.9,4.4,2.6c0.9-1.6,2.7-2.6,4.9-2.6
			C868.5,1333.1,870.5,1334.9,870.5,1338.5z"/>
		<linearGradient id="SVGID_47_" gradientUnits="userSpaceOnUse" x1="728.5562" y1="1336.9888" x2="950.6782" y2="1336.9888">
			<stop  offset="0" style="stop-color:#00F2B1"/>
			<stop  offset="0.5405" style="stop-color:#1DECC8"/>
		</linearGradient>
		<path class="st64" d="M874.7,1329.3c0-0.6,0.5-1.2,1.2-1.2s1.2,0.5,1.2,1.2c0,0.7-0.5,1.2-1.2,1.2
			C875.2,1330.5,874.7,1329.9,874.7,1329.3z M875.1,1333.2h1.7v12.5h-1.7V1333.2z"/>
		<linearGradient id="SVGID_48_" gradientUnits="userSpaceOnUse" x1="728.5562" y1="1336.9888" x2="950.6782" y2="1336.9888">
			<stop  offset="0" style="stop-color:#00F2B1"/>
			<stop  offset="0.5405" style="stop-color:#1DECC8"/>
		</linearGradient>
		<path class="st65" d="M879.7,1344.3l0.8-1.3c1,0.8,2.7,1.4,4.4,1.4c2.4,0,3.4-0.8,3.4-2c0-3.3-8.1-0.7-8.1-5.6
			c0-2,1.8-3.6,4.9-3.6c1.6,0,3.4,0.5,4.4,1.2l-0.7,1.4c-1.1-0.8-2.4-1.1-3.7-1.1c-2.3,0-3.3,0.9-3.3,2.1c0,3.4,8.1,0.8,8.1,5.6
			c0,2.2-1.9,3.6-5.2,3.6C882.8,1345.9,880.8,1345.2,879.7,1344.3z"/>
		<linearGradient id="SVGID_49_" gradientUnits="userSpaceOnUse" x1="728.5562" y1="1336.9888" x2="950.6782" y2="1336.9888">
			<stop  offset="0" style="stop-color:#00F2B1"/>
			<stop  offset="0.5405" style="stop-color:#1DECC8"/>
		</linearGradient>
		<path class="st66" d="M891.4,1344.3l0.8-1.3c1,0.8,2.7,1.4,4.4,1.4c2.4,0,3.4-0.8,3.4-2c0-3.3-8.1-0.7-8.1-5.6
			c0-2,1.8-3.6,4.9-3.6c1.6,0,3.4,0.5,4.4,1.2l-0.7,1.4c-1.1-0.8-2.4-1.1-3.7-1.1c-2.3,0-3.3,0.9-3.3,2.1c0,3.4,8.1,0.8,8.1,5.6
			c0,2.2-1.9,3.6-5.2,3.6C894.4,1345.9,892.4,1345.2,891.4,1344.3z"/>
		<linearGradient id="SVGID_50_" gradientUnits="userSpaceOnUse" x1="728.5562" y1="1336.9888" x2="950.6782" y2="1336.9888">
			<stop  offset="0" style="stop-color:#00F2B1"/>
			<stop  offset="0.5405" style="stop-color:#1DECC8"/>
		</linearGradient>
		<path class="st67" d="M904.4,1329.3c0-0.6,0.5-1.2,1.2-1.2s1.2,0.5,1.2,1.2c0,0.7-0.5,1.2-1.2,1.2
			C904.9,1330.5,904.4,1329.9,904.4,1329.3z M904.7,1333.2h1.7v12.5h-1.7V1333.2z"/>
		<linearGradient id="SVGID_51_" gradientUnits="userSpaceOnUse" x1="728.5562" y1="1336.9888" x2="950.6782" y2="1336.9888">
			<stop  offset="0" style="stop-color:#00F2B1"/>
			<stop  offset="0.5405" style="stop-color:#1DECC8"/>
		</linearGradient>
		<path class="st68" d="M909.9,1339.5c0-3.7,2.7-6.4,6.4-6.4c3.7,0,6.4,2.6,6.4,6.4c0,3.7-2.7,6.4-6.4,6.4
			C912.6,1345.9,909.9,1343.2,909.9,1339.5z M920.9,1339.5c0-2.9-2-4.9-4.6-4.9c-2.7,0-4.7,2-4.7,4.9c0,2.9,2,4.9,4.7,4.9
			C918.9,1344.4,920.9,1342.4,920.9,1339.5z"/>
		<linearGradient id="SVGID_52_" gradientUnits="userSpaceOnUse" x1="728.5562" y1="1336.9888" x2="950.6782" y2="1336.9888">
			<stop  offset="0" style="stop-color:#00F2B1"/>
			<stop  offset="0.5405" style="stop-color:#1DECC8"/>
		</linearGradient>
		<path class="st69" d="M937.6,1338.5v7.3h-1.7v-7.1c0-2.6-1.4-4-3.8-4c-2.7,0-4.4,1.7-4.4,4.5v6.6h-1.7v-12.5h1.6v2.3
			c0.9-1.5,2.6-2.4,4.8-2.4C935.5,1333.1,937.6,1334.9,937.6,1338.5z"/>
		<linearGradient id="SVGID_53_" gradientUnits="userSpaceOnUse" x1="728.5562" y1="1336.9888" x2="950.6782" y2="1336.9888">
			<stop  offset="0" style="stop-color:#00F2B1"/>
			<stop  offset="0.5405" style="stop-color:#1DECC8"/>
		</linearGradient>
		<path class="st70" d="M940.4,1344.3l0.8-1.3c1,0.8,2.7,1.4,4.4,1.4c2.4,0,3.4-0.8,3.4-2c0-3.3-8.1-0.7-8.1-5.6
			c0-2,1.8-3.6,4.9-3.6c1.6,0,3.4,0.5,4.4,1.2l-0.7,1.4c-1.1-0.8-2.4-1.1-3.7-1.1c-2.3,0-3.3,0.9-3.3,2.1c0,3.4,8.1,0.8,8.1,5.6
			c0,2.2-1.9,3.6-5.2,3.6C943.4,1345.9,941.4,1345.2,940.4,1344.3z"/>
	</g>
</g>
<g id="iconfinder_x5F_icon-arrow-down-b_x5F_211614_2_">
	<path class="st9" d="M981.2,1334.3l0.1,0.1l6.8,7.9c0.2,0.3,0.6,0.4,1,0.4s0.7-0.2,1-0.4l6.8-7.8l0.1-0.1c0.1-0.1,0.1-0.3,0.1-0.4
		c0-0.4-0.4-0.8-0.8-0.8l0,0h-14.4l0,0c-0.5,0-0.8,0.4-0.8,0.8C981.1,1334.1,981.1,1334.2,981.2,1334.3z"/>
</g>
<g id="iconfinder_x5F_edit-3_x5F_2561260_3_">
	<linearGradient id="SVGID_54_" gradientUnits="userSpaceOnUse" x1="1894.3115" y1="1191.2307" x2="1915.3712" y2="1191.2307">
		<stop  offset="0" style="stop-color:#00F2B1"/>
		<stop  offset="0.51" style="stop-color:#1DECC8"/>
		<stop  offset="1" style="stop-color:#3EE6E1"/>
	</linearGradient>
	<polygon class="st71" points="1909.3,1181.7 1914.4,1186.8 1900.4,1200.8 1895.3,1200.8 1895.3,1195.7 	"/>
	<linearGradient id="SVGID_55_" gradientUnits="userSpaceOnUse" x1="1894.3115" y1="1207.1138" x2="1919.1832" y2="1207.1138">
		<stop  offset="0" style="stop-color:#00F2B1"/>
		<stop  offset="0.51" style="stop-color:#1DECC8"/>
		<stop  offset="1" style="stop-color:#3EE6E1"/>
	</linearGradient>
	<line class="st72" x1="1895.3" y1="1207.1" x2="1918.2" y2="1207.1"/>
</g>
<g>
	<g>
		<linearGradient id="SVGID_56_" gradientUnits="userSpaceOnUse" x1="1933.9723" y1="1195.3761" x2="1959.7755" y2="1195.3761">
			<stop  offset="0" style="stop-color:#00F2B1"/>
			<stop  offset="0.51" style="stop-color:#1DECC8"/>
			<stop  offset="1" style="stop-color:#3EE6E1"/>
		</linearGradient>
		<linearGradient id="SVGID_57_" gradientUnits="userSpaceOnUse" x1="1933.7223" y1="1195.3761" x2="1960.0255" y2="1195.3761">
			<stop  offset="0" style="stop-color:#00F2B1"/>
			<stop  offset="0.51" style="stop-color:#1DECC8"/>
			<stop  offset="1" style="stop-color:#3EE6E1"/>
		</linearGradient>
		<path class="st73" d="M1959.4,1182.8c-0.5-0.5-1.2-0.5-1.7,0l-10.8,10.8l-10.8-10.8c-0.5-0.5-1.2-0.5-1.7,0
			c-0.5,0.5-0.5,1.2,0,1.7l10.8,10.8l-10.8,10.8c-0.5,0.5-0.5,1.2,0,1.7c0.2,0.2,0.5,0.4,0.9,0.4s0.6-0.1,0.9-0.4l10.8-10.8
			l10.8,10.8c0.2,0.2,0.5,0.4,0.9,0.4s0.6-0.1,0.9-0.4c0.5-0.5,0.5-1.2,0-1.7l-10.8-10.8l10.8-10.8
			C1959.9,1184.1,1959.9,1183.3,1959.4,1182.8z"/>
	</g>
</g>
<path class="st32" d="M1852,1208.5H469.9c-4.2,0-7.5-3.4-7.5-7.5v-9.5c0-4.2,3.4-7.5,7.5-7.5H1852c4.2,0,7.5,3.4,7.5,7.5v9.5
	C1859.6,1205.1,1856.2,1208.5,1852,1208.5z"/>
<g id="iconfinder_x5F_circle-check_x5F_430087_3_">
	<g>
		<g>
			<linearGradient id="SVGID_58_" gradientUnits="userSpaceOnUse" x1="419.0305" y1="1196.2131" x2="447.9511" y2="1196.2131">
				<stop  offset="0" style="stop-color:#00F2B1"/>
				<stop  offset="0.51" style="stop-color:#1DECC8"/>
				<stop  offset="1" style="stop-color:#3EE6E1"/>
			</linearGradient>
			<linearGradient id="SVGID_59_" gradientUnits="userSpaceOnUse" x1="418.5305" y1="1196.2131" x2="448.4511" y2="1196.2131">
				<stop  offset="0" style="stop-color:#00F2B1"/>
				<stop  offset="0.51" style="stop-color:#1DECC8"/>
				<stop  offset="1" style="stop-color:#3EE6E1"/>
			</linearGradient>
			<path class="st74" d="M439.6,1191.3l-8.9,8.9l-3.4-3.4c-0.2-0.2-0.6-0.2-0.8,0c-0.2,0.2-0.2,0.6,0,0.8l4.2,4.2l9.7-9.7
				c0.2-0.2,0.2-0.6,0-0.8C440.2,1191.1,439.8,1191.1,439.6,1191.3z M447.9,1195.1c-0.5-7.1-6.2-12.8-13.3-13.3
				c-8.5-0.6-15.6,6.1-15.6,14.4c0,8,6.5,14.5,14.5,14.5h0C441.8,1210.7,448.5,1203.6,447.9,1195.1z M433.5,1209.5L433.5,1209.5
				c-7.3,0-13.3-6-13.3-13.3c0-7.7,6.5-13.9,14.3-13.3c6.5,0.5,11.8,5.7,12.2,12.2C447.3,1203,441.2,1209.5,433.5,1209.5z"/>
		</g>
	</g>
</g>
<g id="iconfinder_x5F_edit-3_x5F_2561260_1_">
	<linearGradient id="SVGID_60_" gradientUnits="userSpaceOnUse" x1="1893.4894" y1="1113.7931" x2="1914.5491" y2="1113.7931">
		<stop  offset="0" style="stop-color:#00F2B1"/>
		<stop  offset="0.51" style="stop-color:#1DECC8"/>
		<stop  offset="1" style="stop-color:#3EE6E1"/>
	</linearGradient>
	<polygon class="st75" points="1908.5,1104.3 1913.5,1109.3 1899.6,1123.3 1894.5,1123.3 1894.5,1118.2 	"/>
	<linearGradient id="SVGID_61_" gradientUnits="userSpaceOnUse" x1="1893.4894" y1="1129.6761" x2="1918.3611" y2="1129.6761">
		<stop  offset="0" style="stop-color:#00F2B1"/>
		<stop  offset="0.51" style="stop-color:#1DECC8"/>
		<stop  offset="1" style="stop-color:#3EE6E1"/>
	</linearGradient>
	<line class="st76" x1="1894.5" y1="1129.7" x2="1917.4" y2="1129.7"/>
</g>
<g>
	<g>
		<linearGradient id="SVGID_62_" gradientUnits="userSpaceOnUse" x1="1933.1501" y1="1117.9385" x2="1958.9534" y2="1117.9385">
			<stop  offset="0" style="stop-color:#00F2B1"/>
			<stop  offset="0.51" style="stop-color:#1DECC8"/>
			<stop  offset="1" style="stop-color:#3EE6E1"/>
		</linearGradient>
		<linearGradient id="SVGID_63_" gradientUnits="userSpaceOnUse" x1="1932.9001" y1="1117.9385" x2="1959.2034" y2="1117.9385">
			<stop  offset="0" style="stop-color:#00F2B1"/>
			<stop  offset="0.51" style="stop-color:#1DECC8"/>
			<stop  offset="1" style="stop-color:#3EE6E1"/>
		</linearGradient>
		<path class="st77" d="M1958.6,1105.4c-0.5-0.5-1.2-0.5-1.7,0l-10.8,10.8l-10.8-10.8c-0.5-0.5-1.2-0.5-1.7,0
			c-0.5,0.5-0.5,1.2,0,1.7l10.8,10.8l-10.8,10.8c-0.5,0.5-0.5,1.2,0,1.7c0.2,0.2,0.5,0.4,0.9,0.4s0.6-0.1,0.9-0.4l10.8-10.8
			l10.8,10.8c0.2,0.2,0.5,0.4,0.9,0.4c0.3,0,0.6-0.1,0.9-0.4c0.5-0.5,0.5-1.2,0-1.7l-10.8-10.8l10.8-10.8
			C1959.1,1106.6,1959.1,1105.9,1958.6,1105.4z"/>
	</g>
</g>
<path class="st32" d="M1851.2,1131.1H469.1c-4.2,0-7.5-3.4-7.5-7.5v-9.5c0-4.2,3.4-7.5,7.5-7.5h1382.1c4.2,0,7.5,3.4,7.5,7.5v9.5
	C1858.8,1127.7,1855.4,1131.1,1851.2,1131.1z"/>
<g id="iconfinder_x5F_circle-check_x5F_430087_1_">
	<g>
		<g>
			<linearGradient id="SVGID_64_" gradientUnits="userSpaceOnUse" x1="418.2083" y1="1118.7755" x2="447.129" y2="1118.7755">
				<stop  offset="0" style="stop-color:#00F2B1"/>
				<stop  offset="0.51" style="stop-color:#1DECC8"/>
				<stop  offset="1" style="stop-color:#3EE6E1"/>
			</linearGradient>
			<linearGradient id="SVGID_65_" gradientUnits="userSpaceOnUse" x1="417.7083" y1="1118.7755" x2="447.629" y2="1118.7755">
				<stop  offset="0" style="stop-color:#00F2B1"/>
				<stop  offset="0.51" style="stop-color:#1DECC8"/>
				<stop  offset="1" style="stop-color:#3EE6E1"/>
			</linearGradient>
			<path class="st78" d="M438.8,1113.9l-8.9,8.9l-3.4-3.4c-0.2-0.2-0.6-0.2-0.8,0c-0.2,0.2-0.2,0.6,0,0.8l4.2,4.2l9.7-9.7
				c0.2-0.2,0.2-0.6,0-0.8C439.4,1113.6,439,1113.6,438.8,1113.9z M447.1,1117.7c-0.5-7.1-6.2-12.8-13.3-13.3
				c-8.5-0.6-15.6,6.1-15.6,14.4c0,8,6.5,14.5,14.5,14.5h0C441,1133.2,447.7,1126.1,447.1,1117.7z M432.7,1132.1L432.7,1132.1
				c-7.3,0-13.3-6-13.3-13.3c0-7.7,6.5-13.9,14.3-13.3c6.5,0.5,11.8,5.7,12.2,12.2C446.5,1125.6,440.3,1132.1,432.7,1132.1z"/>
		</g>
	</g>
</g>
</svg>
